{
  "accessors": [
    {
      "bufferView": 2,
      "componentType": 5126,
      "count": 11040,
      "max": [
        1.0097391605377197,
        1.011030673980713,
        1.0093975067138672
      ],
      "min": [
        -1.0097391605377197,
        -1.011030673980713,
        -1.0093975067138672
      ],
      "type": "VEC3",
      "byteOffset": 0
    },
    {
      "bufferView": 2,
      "byteOffset": 132480,
      "componentType": 5126,
      "count": 11040,
      "max": [
        0.9994926452636719,
        0.9996883273124695,
        0.999954104423523
      ],
      "min": [
        -0.9992284178733826,
        -0.9973356127738953,
        -0.9992945194244385
      ],
      "type": "VEC3"
    },
    {
      "bufferView": 1,
      "componentType": 5126,
      "count": 11040,
      "max": [
        0.9999993443489075,
        1
      ],
      "min": [
        0,
        0
      ],
      "type": "VEC2",
      "byteOffset": 0
    },
    {
      "bufferView": 0,
      "componentType": 5125,
      "count": 16320,
      "type": "SCALAR",
      "byteOffset": 0
    },
    {
      "bufferView": 2,
      "byteOffset": 264960,
      "componentType": 5126,
      "count": 44160,
      "max": [
        1.0097391605377197,
        1.011030673980713,
        1.0093975067138672
      ],
      "min": [
        -1.0097391605377197,
        -1.011030673980713,
        -1.0093975067138672
      ],
      "type": "VEC3"
    },
    {
      "bufferView": 2,
      "byteOffset": 794880,
      "componentType": 5126,
      "count": 44160,
      "max": [
        0.9999866485595703,
        1,
        0.9999868273735046
      ],
      "min": [
        -0.9999868273735046,
        -0.9999961256980896,
        -0.9999949932098389
      ],
      "type": "VEC3"
    },
    {
      "bufferView": 1,
      "byteOffset": 88320,
      "componentType": 5126,
      "count": 44160,
      "max": [
        0.9999993443489075,
        1
      ],
      "min": [
        0,
        0
      ],
      "type": "VEC2"
    },
    {
      "bufferView": 0,
      "byteOffset": 65280,
      "componentType": 5125,
      "count": 66240,
      "type": "SCALAR"
    },
    {
      "bufferView": 3,
      "componentType": 5126,
      "count": 499,
      "max": [
        16.66666603088379
      ],
      "min": [
        0.0416666679084301
      ],
      "type": "SCALAR",
      "byteOffset": 0
    },
    {
      "bufferView": 4,
      "componentType": 5126,
      "count": 499,
      "max": [
        8.357392849149913e-17,
        0.9999971985816956,
        8.357392849149913e-17,
        1
      ],
      "min": [
        -8.659559941682064e-17,
        -0.8644463419914246,
        -8.659559941682064e-17,
        -0.49727001786231995
      ],
      "type": "VEC4",
      "byteOffset": 0
    }
  ],
  "animations": [
    {
      "channels": [
        {
          "sampler": 0,
          "target": {
            "node": 4,
            "path": "rotation"
          }
        }
      ],
      "name": "Take 001",
      "samplers": [
        {
          "input": 8,
          "interpolation": "LINEAR",
          "output": 9
        }
      ]
    }
  ],
  "asset": {
    "extras": {
      "author": "pan.stasian (https://sketchfab.com/pan_stasian)",
      "license": "CC-BY-4.0 (http://creativecommons.org/licenses/by/4.0/)",
      "source": "https://sketchfab.com/3d-models/pretty-simple-discoball-6b1921865be14de982f9483040acaa2d",
      "title": "Pretty simple discoball"
    },
    "generator": "Sketchfab-12.68.0",
    "version": "2.0"
  },
  "bufferViews": [
    {
      "buffer": 0,
      "byteLength": 330240,
      "name": "floatBufferViews",
      "target": 34963,
      "byteOffset": 0
    },
    {
      "buffer": 0,
      "byteLength": 441600,
      "byteOffset": 330240,
      "byteStride": 8,
      "name": "floatBufferViews",
      "target": 34962
    },
    {
      "buffer": 0,
      "byteLength": 1324800,
      "byteOffset": 771840,
      "byteStride": 12,
      "name": "floatBufferViews",
      "target": 34962
    },
    {
      "buffer": 0,
      "byteLength": 1996,
      "byteOffset": 2096640,
      "name": "floatBufferViews"
    },
    {
      "buffer": 0,
      "byteLength": 7984,
      "byteOffset": 2098640,
      "byteStride": 16,
      "name": "floatBufferViews"
    }
  ],
  "buffers": [
    {
      "name": "disco",
      "byteLength": 2106624,
      "uri": "data:application/octet-stream;base64,"
    }
  ],
  "materials": [
    {
      "doubleSided": true,
      "name": "disco_mat",
      "pbrMetallicRoughness": {
        "baseColorFactor": [
          0.8482712485824304,
          0.0862983147370682,
          0.6101872942805078,
          1
        ],
        "roughnessFactor": 0,
        "metallicFactor": 1
      },
      "emissiveFactor": [
        0,
        0,
        0
      ],
      "alphaMode": "OPAQUE"
    },
    {
      "doubleSided": true,
      "name": "non_disco_mat",
      "pbrMetallicRoughness": {
        "baseColorFactor": [
          0.007738444094384058,
          0.007738444094384058,
          0.007738444094384058,
          1
        ],
        "roughnessFactor": 0.6692987553311984,
        "metallicFactor": 1
      },
      "emissiveFactor": [
        0,
        0,
        0
      ],
      "alphaMode": "OPAQUE"
    }
  ],
  "meshes": [
    {
      "name": "pSphere3_disco_mat_0",
      "primitives": [
        {
          "attributes": {
            "NORMAL": 1,
            "POSITION": 0,
            "TEXCOORD_0": 2
          },
          "indices": 3,
          "material": 0,
          "mode": 4
        }
      ]
    },
    {
      "name": "pSphere3_non_disco_mat_0",
      "primitives": [
        {
          "attributes": {
            "NORMAL": 5,
            "POSITION": 4,
            "TEXCOORD_0": 6
          },
          "indices": 7,
          "material": 1,
          "mode": 4
        }
      ]
    }
  ],
  "nodes": [
    {
      "children": [
        1
      ],
      "matrix": [
        1,
        0,
        0,
        0,
        0,
        2.220446049250313e-16,
        -1,
        0,
        0,
        1,
        2.220446049250313e-16,
        0,
        0,
        0,
        0,
        1
      ],
      "name": "Sketchfab_model"
    },
    {
      "children": [
        2
      ],
      "matrix": [
        1,
        0,
        0,
        0,
        0,
        0,
        1,
        0,
        0,
        -1,
        0,
        0,
        0,
        0,
        0,
        1
      ],
      "name": "38090a759c5a4c6bb322ead3c3040581.fbx"
    },
    {
      "children": [
        3
      ],
      "name": "Object_2"
    },
    {
      "children": [
        4
      ],
      "name": "RootNode"
    },
    {
      "children": [
        5,
        6
      ],
      "name": "pSphere3",
      "rotation": [
        0,
        0.614212691783905,
        0,
        0.789140522480011
      ],
      "translation": [
        0.0001150965690612793,
        -0.00003719329833984375,
        0.0003618597984313965
      ],
      "scale": [
        1,
        1,
        1
      ]
    },
    {
      "mesh": 0,
      "name": "pSphere3_disco_mat_0"
    },
    {
      "mesh": 1,
      "name": "pSphere3_non_disco_mat_0"
    }
  ],
  "scene": 0,
  "scenes": [
    {
      "name": "Sketchfab_Scene",
      "nodes": [
        0
      ]
    }
  ]
}
