{
  "accessors": [
    {
      "bufferView": 2,
      "componentType": 5126,
      "count": 3847,
      "max": [
        63.96030044555664,
        15.129167556762695,
        6.720427513122559
      ],
      "min": [
        -3.754457950592041,
        -13.766407012939453,
        -4.235321044921875
      ],
      "type": "VEC3",
      "byteOffset": 0
    },
    {
      "bufferView": 2,
      "byteOffset": 46164,
      "componentType": 5126,
      "count": 3847,
      "max": [
        1,
        1,
        1
      ],
      "min": [
        -1,
        -1,
        -1
      ],
      "type": "VEC3"
    },
    {
      "bufferView": 3,
      "componentType": 5126,
      "count": 3847,
      "max": [
        1,
        1,
        1,
        1
      ],
      "min": [
        -1,
        -1,
        -1,
        -1
      ],
      "type": "VEC4",
      "byteOffset": 0
    },
    {
      "bufferView": 1,
      "componentType": 5126,
      "count": 3847,
      "max": [
        0.99560546875,
        1.3498033285140991
      ],
      "min": [
        -2.4442520141601562,
        0.00439453125
      ],
      "type": "VEC2",
      "byteOffset": 0
    },
    {
      "bufferView": 1,
      "byteOffset": 30776,
      "componentType": 5126,
      "count": 3847,
      "max": [
        0.99560546875,
        1.3498033285140991
      ],
      "min": [
        -2.4442520141601562,
        0.00439453125
      ],
      "type": "VEC2"
    },
    {
      "bufferView": 1,
      "byteOffset": 61552,
      "componentType": 5126,
      "count": 3847,
      "max": [
        0.99560546875,
        1.3498033285140991
      ],
      "min": [
        -2.4442520141601562,
        0.00439453125
      ],
      "type": "VEC2"
    },
    {
      "bufferView": 1,
      "byteOffset": 92328,
      "componentType": 5126,
      "count": 3847,
      "max": [
        0.99560546875,
        1.3498033285140991
      ],
      "min": [
        -2.4442520141601562,
        0.00439453125
      ],
      "type": "VEC2"
    },
    {
      "bufferView": 0,
      "componentType": 5125,
      "count": 10050,
      "type": "SCALAR",
      "byteOffset": 0
    },
    {
      "bufferView": 2,
      "byteOffset": 92328,
      "componentType": 5126,
      "count": 935,
      "max": [
        2.519650459289551,
        12.353498458862305,
        2.855520725250244
      ],
      "min": [
        -26.51125144958496,
        -5.897973537445068,
        -2.5413661003112793
      ],
      "type": "VEC3"
    },
    {
      "bufferView": 2,
      "byteOffset": 103548,
      "componentType": 5126,
      "count": 935,
      "max": [
        0.9976340532302856,
        0.9885454177856445,
        0.9994292259216309
      ],
      "min": [
        -0.9406748414039612,
        -1,
        -0.9994292259216309
      ],
      "type": "VEC3"
    },
    {
      "bufferView": 3,
      "byteOffset": 61552,
      "componentType": 5126,
      "count": 935,
      "max": [
        1,
        0.999003529548645,
        0.998608410358429,
        1
      ],
      "min": [
        -0.9999916553497314,
        -0.9999160170555115,
        -0.9996600151062012,
        -1
      ],
      "type": "VEC4"
    },
    {
      "bufferView": 1,
      "byteOffset": 123104,
      "componentType": 5126,
      "count": 935,
      "max": [
        0.9457605481147766,
        3.0869219303131104
      ],
      "min": [
        -6.331175804138184,
        -0.9222180843353271
      ],
      "type": "VEC2"
    },
    {
      "bufferView": 1,
      "byteOffset": 130584,
      "componentType": 5126,
      "count": 935,
      "max": [
        0.9457605481147766,
        3.0869219303131104
      ],
      "min": [
        -6.331175804138184,
        -0.9222180843353271
      ],
      "type": "VEC2"
    },
    {
      "bufferView": 1,
      "byteOffset": 138064,
      "componentType": 5126,
      "count": 935,
      "max": [
        0.9457605481147766,
        3.0869219303131104
      ],
      "min": [
        -6.331175804138184,
        -0.9222180843353271
      ],
      "type": "VEC2"
    },
    {
      "bufferView": 1,
      "byteOffset": 145544,
      "componentType": 5126,
      "count": 935,
      "max": [
        0.9457605481147766,
        3.0869219303131104
      ],
      "min": [
        -6.331175804138184,
        -0.9222180843353271
      ],
      "type": "VEC2"
    },
    {
      "bufferView": 0,
      "byteOffset": 40200,
      "componentType": 5125,
      "count": 3135,
      "type": "SCALAR"
    }
  ],
  "asset": {
    "extras": {
      "author": "instagram1m_lal (https://sketchfab.com/1m_lal)",
      "license": "CC-BY-4.0 (http://creativecommons.org/licenses/by/4.0/)",
      "source": "https://sketchfab.com/3d-models/m416-the-fool-310555d2bc2a4363922d1f45a786e9ea",
      "title": "m416 the Fool"
    },
    "generator": "Sketchfab-12.68.0",
    "version": "2.0"
  },
  "bufferViews": [
    {
      "buffer": 0,
      "byteLength": 52740,
      "name": "floatBufferViews",
      "target": 34963,
      "byteOffset": 0
    },
    {
      "buffer": 0,
      "byteLength": 153024,
      "byteOffset": 52744,
      "byteStride": 8,
      "name": "floatBufferViews",
      "target": 34962
    },
    {
      "buffer": 0,
      "byteLength": 114768,
      "byteOffset": 205768,
      "byteStride": 12,
      "name": "floatBufferViews",
      "target": 34962
    },
    {
      "buffer": 0,
      "byteLength": 76512,
      "byteOffset": 320536,
      "byteStride": 16,
      "name": "floatBufferViews",
      "target": 34962
    },
    {
      "buffer": 0,
      "byteOffset": 397048,
      "byteLength": 896149
    },
    {
      "buffer": 0,
      "byteOffset": 1293200,
      "byteLength": 419404
    },
    {
      "buffer": 0,
      "byteOffset": 1712608,
      "byteLength": 728636
    }
  ],
  "buffers": [
    {
      "name": "m4",
      "byteLength": 2441248,
      "uri": "data:application/octet-stream;base64,"
    }
  ],
  "images": [
    {
      "name": "mat0.004_baseColor",
      "bufferView": 4,
      "mimeType": "image/png"
    },
    {
      "name": "mat0.004_metallicRoughness",
      "bufferView": 5,
      "mimeType": "image/png"
    },
    {
      "name": "mat0.004_normal",
      "bufferView": 6,
      "mimeType": "image/png"
    }
  ],
  "materials": [
    {
      "doubleSided": true,
      "name": "mat0.004",
      "normalTexture": {
        "index": 2,
        "texCoord": 0
      },
      "pbrMetallicRoughness": {
        "baseColorTexture": {
          "index": 0,
          "texCoord": 0
        },
        "metallicRoughnessTexture": {
          "index": 1,
          "texCoord": 0
        },
        "baseColorFactor": [
          1,
          1,
          1,
          1
        ],
        "metallicFactor": 1,
        "roughnessFactor": 1
      },
      "emissiveFactor": [
        0,
        0,
        0
      ],
      "alphaMode": "OPAQUE"
    },
    {
      "doubleSided": true,
      "name": "mat0.005",
      "normalTexture": {
        "index": 2,
        "texCoord": 0
      },
      "pbrMetallicRoughness": {
        "baseColorTexture": {
          "index": 0,
          "texCoord": 0
        },
        "metallicRoughnessTexture": {
          "index": 1,
          "texCoord": 0
        },
        "baseColorFactor": [
          1,
          1,
          1,
          1
        ],
        "metallicFactor": 1,
        "roughnessFactor": 1
      },
      "emissiveFactor": [
        0,
        0,
        0
      ],
      "alphaMode": "OPAQUE"
    }
  ],
  "meshes": [
    {
      "name": "Object_0",
      "primitives": [
        {
          "attributes": {
            "NORMAL": 1,
            "POSITION": 0,
            "TANGENT": 2,
            "TEXCOORD_0": 3,
            "TEXCOORD_1": 4,
            "TEXCOORD_2": 5,
            "TEXCOORD_3": 6
          },
          "indices": 7,
          "material": 0,
          "mode": 4
        }
      ]
    },
    {
      "name": "Object_1",
      "primitives": [
        {
          "attributes": {
            "NORMAL": 9,
            "POSITION": 8,
            "TANGENT": 10,
            "TEXCOORD_0": 11,
            "TEXCOORD_1": 12,
            "TEXCOORD_2": 13,
            "TEXCOORD_3": 14
          },
          "indices": 15,
          "material": 1,
          "mode": 4
        }
      ]
    }
  ],
  "nodes": [
    {
      "children": [
        1
      ],
      "matrix": [
        1,
        0,
        0,
        0,
        0,
        2.220446049250313e-16,
        -1,
        0,
        0,
        1,
        2.220446049250313e-16,
        0,
        0,
        0,
        0,
        1
      ],
      "name": "Sketchfab_model"
    },
    {
      "children": [
        2
      ],
      "name": "root"
    },
    {
      "children": [
        3
      ],
      "matrix": [
        1,
        0,
        0,
        0,
        0,
        2.220446049250313e-16,
        1,
        0,
        0,
        -1,
        2.220446049250313e-16,
        0,
        0,
        0,
        0,
        1
      ],
      "name": "GLTF_SceneRootNode"
    },
    {
      "children": [
        4,
        5
      ],
      "matrix": [
        0.009999999776482582,
        0,
        0,
        0,
        0,
        0.009999999776482582,
        0,
        0,
        0,
        0,
        0.009999999776482582,
        0,
        0,
        0,
        0,
        1
      ],
      "name": "m416 the fool_0"
    },
    {
      "mesh": 0,
      "name": "Object_4"
    },
    {
      "mesh": 1,
      "name": "Object_5"
    }
  ],
  "samplers": [
    {
      "magFilter": 9729,
      "minFilter": 9987,
      "wrapS": 10497,
      "wrapT": 10497
    }
  ],
  "scene": 0,
  "scenes": [
    {
      "name": "Sketchfab_Scene",
      "nodes": [
        0
      ]
    }
  ],
  "textures": [
    {
      "sampler": 0,
      "source": 0
    },
    {
      "sampler": 0,
      "source": 1
    },
    {
      "sampler": 0,
      "source": 2
    }
  ]
}
